<svg width="36" height="28" viewBox="0 0 36 28" fill="none" xmlns="http://www.w3.org/2000/svg">
<path d="M33.625 5.80859L28.625 8.6875V2.75C28.625 1.37109 27.5039 0.25 26.125 0.25H3C1.62109 0.25 0.5 1.37109 0.5 2.75V25.25C0.5 26.6289 1.62109 27.75 3 27.75H26.125C27.5039 27.75 28.625 26.6289 28.625 25.25V19.3125L33.625 22.1914C34.457 22.6719 35.5 22.0703 35.5 21.1133V6.89062C35.5 5.92969 34.457 5.32812 33.625 5.80859ZM10.8125 7.75C10.8125 7.92188 10.6719 8.0625 10.5 8.0625H6.125C5.95312 8.0625 5.8125 7.92188 5.8125 7.75V5.875C5.8125 5.70312 5.95312 5.5625 6.125 5.5625H10.5C10.6719 5.5625 10.8125 5.70312 10.8125 5.875V7.75ZM32.6875 18.4141L28.625 16.0781V11.9258L32.6875 9.58594V18.4141Z" fill="#252525"/>
</svg>
