<svg width="36" height="36" viewBox="0 0 36 36" fill="none" xmlns="http://www.w3.org/2000/svg">
<path d="M30.5 25.5C29.61 25.5044 28.7377 25.7489 27.975 26.2075L19.7675 18L27.9763 9.79125C28.7383 10.2505 29.6103 10.4953 30.5 10.5C31.4889 10.5 32.4556 10.2068 33.2779 9.65735C34.1001 9.10794 34.741 8.32705 35.1194 7.41342C35.4978 6.49979 35.5969 5.49446 35.4039 4.52455C35.211 3.55465 34.7348 2.66373 34.0355 1.96447C33.3363 1.26521 32.4454 0.789002 31.4755 0.596076C30.5055 0.40315 29.5002 0.502166 28.5866 0.880605C27.673 1.25904 26.8921 1.89991 26.3427 2.72215C25.7932 3.5444 25.5 4.5111 25.5 5.5C25.5046 6.38974 25.7495 7.2617 26.2087 8.02375L18 16.2325L9.7925 8.025C10.2511 7.26229 10.4956 6.38998 10.5 5.5C10.5 4.5111 10.2068 3.5444 9.65735 2.72215C9.10794 1.89991 8.32705 1.25904 7.41342 0.880605C6.49979 0.502166 5.49445 0.40315 4.52455 0.596076C3.55464 0.789002 2.66373 1.26521 1.96447 1.96447C1.2652 2.66373 0.789 3.55465 0.596074 4.52455C0.403148 5.49446 0.502164 6.49979 0.880603 7.41342C1.25904 8.32705 1.8999 9.10794 2.72215 9.65735C3.54439 10.2068 4.51109 10.5 5.5 10.5C6.38998 10.4956 7.26229 10.2512 8.025 9.7925L16.2325 18L8.02375 26.2088C7.26168 25.7495 6.38973 25.5047 5.5 25.5C4.51109 25.5 3.54439 25.7932 2.72215 26.3427C1.8999 26.8921 1.25904 27.673 0.880603 28.5866C0.502164 29.5002 0.403148 30.5055 0.596074 31.4755C0.789 32.4454 1.2652 33.3363 1.96447 34.0355C2.66373 34.7348 3.55464 35.211 4.52455 35.4039C5.49445 35.5969 6.49979 35.4978 7.41342 35.1194C8.32705 34.741 9.10794 34.1001 9.65735 33.2779C10.2068 32.4556 10.5 31.4889 10.5 30.5C10.4954 29.6103 10.2505 28.7383 9.79125 27.9763L18 19.7675L26.2075 27.975C25.7489 28.7377 25.5044 29.61 25.5 30.5C25.5 31.4889 25.7932 32.4556 26.3427 33.2779C26.8921 34.1001 27.673 34.741 28.5866 35.1194C29.5002 35.4978 30.5055 35.5969 31.4755 35.4039C32.4454 35.211 33.3363 34.7348 34.0355 34.0355C34.7348 33.3363 35.211 32.4454 35.4039 31.4755C35.5969 30.5055 35.4978 29.5002 35.1194 28.5866C34.741 27.673 34.1001 26.8921 33.2779 26.3427C32.4556 25.7932 31.4889 25.5 30.5 25.5ZM30.5 3C30.9945 3 31.4778 3.14662 31.8889 3.42133C32.3001 3.69603 32.6205 4.08648 32.8097 4.54329C32.9989 5.00011 33.0484 5.50278 32.952 5.98773C32.8555 6.47268 32.6174 6.91814 32.2678 7.26777C31.9181 7.6174 31.4727 7.8555 30.9877 7.95197C30.5028 8.04843 30.0001 7.99892 29.5433 7.8097C29.0865 7.62048 28.696 7.30005 28.4213 6.88893C28.1466 6.4778 28 5.99446 28 5.5C28.0007 4.83716 28.2643 4.20166 28.733 3.73297C29.2017 3.26427 29.8372 3.00066 30.5 3ZM5.5 33C5.00555 33 4.5222 32.8534 4.11107 32.5787C3.69995 32.304 3.37952 31.9135 3.1903 31.4567C3.00108 30.9999 2.95157 30.4972 3.04804 30.0123C3.1445 29.5273 3.3826 29.0819 3.73223 28.7322C4.08186 28.3826 4.52732 28.1445 5.01227 28.048C5.49723 27.9516 5.99989 28.0011 6.45671 28.1903C6.91352 28.3795 7.30397 28.7 7.57867 29.1111C7.85338 29.5222 8 30.0055 8 30.5C7.99934 31.1628 7.73573 31.7983 7.26704 32.267C6.79834 32.7357 6.16284 32.9993 5.5 33Z" fill="#252525"/>
</svg>
