<svg width="32" height="32" viewBox="0 0 32 32" fill="none" xmlns="http://www.w3.org/2000/svg">
<path d="M27.2654 27.266H22.524V19.8406C22.524 18.07 22.4924 15.7906 20.058 15.7906C17.5885 15.7906 17.2107 17.7198 17.2107 19.7117V27.2655H12.4694V11.996H17.021V14.0827H17.0848C17.5403 13.3038 18.1985 12.6631 18.9894 12.2287C19.7802 11.7944 20.6741 11.5826 21.5758 11.6161C26.3814 11.6161 27.2674 14.7771 27.2674 18.8893L27.2654 27.266ZM7.11941 9.90883C5.59978 9.90908 4.36766 8.67733 4.36741 7.1577C4.36716 5.63808 5.59878 4.40595 7.11841 4.4057C8.63803 4.40533 9.87016 5.63708 9.87041 7.1567C9.87054 7.88646 9.58078 8.58638 9.06487 9.1025C8.54896 9.61862 7.84916 9.90866 7.11941 9.90883ZM9.49016 27.2661H4.74378V11.996H9.49003V27.266L9.49016 27.2661ZM29.6292 0.00232899H2.36128C1.07253 -0.012171 0.0156584 1.0202 -9.15527e-05 2.30895V29.6906C0.0151584 30.98 1.07191 32.0133 2.36116 31.9998H29.6292C30.9212 32.0158 31.982 30.9825 31.9999 29.6906V2.30683C31.9815 1.01558 30.9205 -0.016671 29.6292 0.000203987" fill="#0A66C2"/>
</svg>
