<svg width="35" height="21" viewBox="0 0 35 21" fill="none" xmlns="http://www.w3.org/2000/svg">
<path d="M34.7572 0.0631267C34.2466 2.24 33.7225 4.52438 33.185 6.91625C32.6744 9.30813 32.2041 11.6597 31.7741 13.9709C31.3441 16.2553 30.9812 18.3516 30.6856 20.2597H19.3981L18.8337 19.3728C19.3175 17.4109 19.9356 15.3281 20.6881 13.1244C21.4675 10.8938 22.3006 8.66313 23.1875 6.4325C24.1012 4.175 25.015 2.05188 25.9287 0.0631267H34.7572ZM15.9312 0.0631267C15.4206 2.24 14.8966 4.52438 14.3591 6.91625C13.8484 9.30813 13.3781 11.6597 12.9481 13.9709C12.5181 16.2553 12.1553 18.3516 11.8597 20.2597H0.572187L0.00781247 19.3728C0.491562 17.4109 1.10969 15.3281 1.86219 13.1244C2.64156 10.8938 3.47469 8.66313 4.36156 6.4325C5.27531 4.175 6.18906 2.05188 7.10281 0.0631267H15.9312Z" fill="white"/>
</svg>
