<svg width="28" height="33" viewBox="0 0 28 33" fill="none" xmlns="http://www.w3.org/2000/svg">
<path d="M10 7.00004C9.46957 7.00004 8.96086 7.21075 8.58579 7.58583C8.21071 7.9609 8 8.46961 8 9.00004C8 9.53047 8.21071 10.0392 8.58579 10.4143C8.96086 10.7893 9.46957 11 10 11H21.172L18.586 13.586C18.2217 13.9632 18.0201 14.4684 18.0247 14.9928C18.0292 15.5172 18.2395 16.0189 18.6104 16.3897C18.9812 16.7605 19.4828 16.9708 20.0072 16.9754C20.5316 16.9799 21.0368 16.7784 21.414 16.414L27.414 10.414C27.7889 10.039 27.9996 9.53037 27.9996 9.00004C27.9996 8.46971 27.7889 7.9611 27.414 7.58604L21.414 1.58604C21.2295 1.39502 21.0088 1.24266 20.7648 1.13784C20.5208 1.03302 20.2584 0.977847 19.9928 0.975539C19.7272 0.973232 19.4639 1.02384 19.2181 1.1244C18.9723 1.22496 18.749 1.37347 18.5612 1.56125C18.3734 1.74904 18.2249 1.97234 18.1244 2.21813C18.0238 2.46392 17.9732 2.72728 17.9755 2.99284C17.9778 3.2584 18.033 3.52084 18.1378 3.76485C18.2426 4.00886 18.395 4.22955 18.586 4.41404L21.172 7.00004H10ZM18 27C18.5304 27 19.0391 26.7893 19.4142 26.4143C19.7893 26.0392 20 25.5305 20 25C20 24.4696 19.7893 23.9609 19.4142 23.5858C19.0391 23.2108 18.5304 23 18 23H6.828L9.414 20.414C9.60502 20.2295 9.75738 20.0089 9.8622 19.7648C9.96702 19.5208 10.0222 19.2584 10.0245 18.9928C10.0268 18.7273 9.97621 18.4639 9.87564 18.2181C9.77508 17.9723 9.62658 17.749 9.43879 17.5613C9.25101 17.3735 9.0277 17.225 8.78191 17.1244C8.53612 17.0238 8.27276 16.9732 8.0072 16.9755C7.74164 16.9778 7.4792 17.033 7.23519 17.1378C6.99118 17.2427 6.77049 17.395 6.586 17.586L0.586 23.586C0.211058 23.9611 0.000427246 24.4697 0.000427246 25C0.000427246 25.5304 0.211058 26.039 0.586 26.414L6.586 32.414C6.9632 32.7784 7.46841 32.9799 7.9928 32.9754C8.5172 32.9708 9.01882 32.7605 9.38964 32.3897C9.76045 32.0189 9.97079 31.5172 9.97535 30.9928C9.97991 30.4684 9.77832 29.9632 9.414 29.586L6.828 27H18Z" fill="#252525"/>
</svg>
