<svg width="31" height="32" viewBox="0 0 31 32" fill="none" xmlns="http://www.w3.org/2000/svg">
<path d="M15.5111 0.639893C7.02792 0.639893 0.151123 7.51669 0.151123 15.9999C0.151123 24.4831 7.02792 31.3599 15.5111 31.3599C23.9943 31.3599 30.8711 24.4831 30.8711 15.9999C30.8711 7.51669 23.9943 0.639893 15.5111 0.639893ZM21.7591 13.2223C21.7655 13.3535 21.7671 13.4847 21.7671 13.6127C21.7671 17.6127 18.7255 22.2223 13.1607 22.2223C11.5164 22.225 9.90627 21.7528 8.52392 20.8623C8.75912 20.8911 9.00072 20.9023 9.24552 20.9023C10.6631 20.9023 11.9671 20.4207 13.0023 19.6079C12.3715 19.5955 11.7602 19.3866 11.2537 19.0103C10.7472 18.634 10.3707 18.1091 10.1767 17.5087C10.6298 17.5948 11.0965 17.5768 11.5415 17.4559C10.8568 17.3174 10.241 16.9464 9.79866 16.4058C9.35627 15.8651 9.11449 15.1881 9.11432 14.4895V14.4527C9.52232 14.6783 9.98952 14.8159 10.4855 14.8319C9.8436 14.4046 9.38918 13.7482 9.21519 12.9969C9.04121 12.2456 9.1608 11.4563 9.54952 10.7903C10.3095 11.7247 11.2571 12.4891 12.3312 13.034C13.4053 13.5789 14.5819 13.8922 15.7847 13.9535C15.6318 13.3044 15.6976 12.6229 15.9719 12.0151C16.2463 11.4073 16.7137 10.9071 17.3016 10.5923C17.8896 10.2776 18.565 10.1658 19.223 10.2746C19.8809 10.3833 20.4845 10.7063 20.9399 11.1935C21.617 11.0595 22.2663 10.8112 22.8599 10.4591C22.6343 11.1601 22.1618 11.7554 21.5303 12.1343C22.1301 12.0621 22.7157 11.9008 23.2679 11.6559C22.8623 12.2637 22.3513 12.7942 21.7591 13.2223Z" fill="#699BF7"/>
</svg>
