<svg width="46" height="32" viewBox="0 0 46 32" fill="none" xmlns="http://www.w3.org/2000/svg">
<g clip-path="url(#clip0_246_1495)">
<path d="M44.5058 4.99111C44.2448 4.02641 43.7356 3.14692 43.0289 2.44023C42.3222 1.73353 41.4428 1.22429 40.4781 0.9632C36.9463 0 22.7323 0 22.7323 0C22.7323 0 8.51754 0.0291555 4.98581 0.992355C4.0211 1.25346 3.14162 1.76273 2.43495 2.46946C1.72829 3.17619 1.21909 4.05571 0.958073 5.02044C-0.110193 11.2956 -0.524593 20.8576 0.987407 26.8818C1.24845 27.8465 1.75766 28.726 2.46432 29.4327C3.17099 30.1394 4.05045 30.6486 5.01514 30.9097C8.54687 31.8729 22.7613 31.8729 22.7613 31.8729C22.7613 31.8729 36.9755 31.8729 40.5071 30.9097C41.4718 30.6486 42.3513 30.1394 43.058 29.4327C43.7647 28.726 44.2739 27.8465 44.535 26.8818C45.6617 20.5977 46.0089 11.0418 44.5058 4.99129V4.99111Z" fill="#FF0000"/>
<path d="M18.2082 22.7662L29.9998 15.9363L18.2082 9.10645V22.7662Z" fill="white"/>
</g>
<defs>
<clipPath id="clip0_246_1495">
<rect width="45.5111" height="32" fill="white"/>
</clipPath>
</defs>
</svg>
