<svg width="607" height="459" viewBox="0 0 607 459" fill="none" xmlns="http://www.w3.org/2000/svg">
<rect width="607" height="459" fill="#333333"/>
<g clip-path="url(#clip0_246_1121)">
<path d="M357.526 202.478C356.884 200.066 355.631 197.867 353.892 196.101C352.153 194.334 349.988 193.061 347.614 192.408C338.923 190 303.943 190 303.943 190C303.943 190 268.961 190.073 260.27 192.481C257.896 193.134 255.732 194.407 253.993 196.174C252.253 197.94 251 200.139 250.358 202.551C247.729 218.239 246.709 242.144 250.43 257.204C251.073 259.616 252.326 261.815 254.065 263.582C255.804 265.348 257.968 266.622 260.342 267.274C269.034 269.682 304.014 269.682 304.014 269.682C304.014 269.682 338.995 269.682 347.686 267.274C350.06 266.622 352.224 265.348 353.963 263.582C355.702 261.815 356.956 259.616 357.598 257.204C360.371 241.494 361.225 217.604 357.526 202.478V202.478Z" fill="#FF0000"/>
<path d="M292.809 246.916L321.828 229.841L292.809 212.766V246.916Z" fill="white"/>
</g>
<defs>
<clipPath id="clip0_246_1121">
<rect width="112" height="80" fill="white" transform="translate(248 190)"/>
</clipPath>
</defs>
</svg>
